<?xml version="1.0" encoding="UTF-8" standalone="no"?>
<!-- Created with Inkscape (http://www.inkscape.org/) -->

<svg
   xmlns:dc="http://purl.org/dc/elements/1.1/"
   xmlns:cc="http://creativecommons.org/ns#"
   xmlns:rdf="http://www.w3.org/1999/02/22-rdf-syntax-ns#"
   xmlns:svg="http://www.w3.org/2000/svg"
   xmlns="http://www.w3.org/2000/svg"
   xmlns:sodipodi="http://sodipodi.sourceforge.net/DTD/sodipodi-0.dtd"
   xmlns:inkscape="http://www.inkscape.org/namespaces/inkscape"
   id="svg2985"
   version="1.1"
   inkscape:version="0.48.3.1 r9886"
   width="371.25"
   height="520.59376"
   xml:space="preserve"
   sodipodi:docname="schema.svg"
   inkscape:export-filename="/home/jendrik/Work/windml/doc/_static/schema.png"
   inkscape:export-xdpi="106.2"
   inkscape:export-ydpi="106.2"><metadata
     id="metadata2991"><rdf:RDF><cc:Work
         rdf:about=""><dc:format>image/svg+xml</dc:format><dc:type
           rdf:resource="http://purl.org/dc/dcmitype/StillImage" /><dc:title></dc:title></cc:Work></rdf:RDF></metadata><defs
     id="defs2989" /><sodipodi:namedview
     pagecolor="#ffffff"
     bordercolor="#666666"
     borderopacity="1"
     objecttolerance="10"
     gridtolerance="10"
     guidetolerance="10"
     inkscape:pageopacity="0"
     inkscape:pageshadow="2"
     inkscape:window-width="1920"
     inkscape:window-height="1050"
     id="namedview2987"
     showgrid="false"
     inkscape:zoom="1.6942193"
     inkscape:cx="185.625"
     inkscape:cy="260.29688"
     inkscape:window-x="0"
     inkscape:window-y="0"
     inkscape:window-maximized="0"
     inkscape:current-layer="g2995" /><g
     id="g2993"
     inkscape:groupmode="layer"
     inkscape:label="schema"
     transform="matrix(1.25,0,0,-1.25,0,520.59376)"><g
       id="g2995"><g
         id="g2997"
         transform="matrix(1,0,0,-1,0,416.47501)"><path
           d="m 12.691,273.738 271.645,0 c 6.848,0 12.363,3.211 12.363,7.2 l 0,46.253 c 0,3.989 -5.515,7.2 -12.363,7.2 l -271.645,0 c -6.851,0 -12.367,-3.211 -12.367,-7.2 l 0,-46.253 c 0,-3.989 5.516,-7.2 12.367,-7.2 z"
           style="fill:#e2f2fe;fill-opacity:1;fill-rule:nonzero;stroke:#e2f2fe;stroke-opacity:1;stroke-width:0.577242;stroke-linecap:butt;stroke-linejoin:miter;stroke-miterlimit:4;stroke-dasharray:1.731727,0.577242;stroke-dashoffset:0"
           id="path2999" /></g><g
         id="g3001"
         transform="matrix(1,0,0,-1,0,416.47501)"><path
           d="m 10.379,81.754 163.359,0 c 5.571,0 10.055,3.953 10.055,8.867 l 0,108.922 c 0,4.91 -4.484,8.867 -10.055,8.867 l -163.359,0 c -5.57,0 -10.055,-3.957 -10.055,-8.867 l 0,-108.922 c 0,-4.914 4.485,-8.867 10.055,-8.867 z"
           style="fill:#e2f2fe;fill-opacity:1;fill-rule:nonzero;stroke:#e2f2fe;stroke-opacity:1;stroke-width:0.656307;stroke-linecap:butt;stroke-linejoin:miter;stroke-miterlimit:4;stroke-dasharray:1.968922,0.656307;stroke-dashoffset:0"
           id="path3003" /></g><g
         id="g3005"
         transform="matrix(1,0,0,-1,0,416.47501)"><path
           d="m 206.66,80.18 79.59,0 c 5.371,0 9.695,4.168 9.695,9.347 l 0,109.793 c 0,5.18 -4.324,9.348 -9.695,9.348 l -79.59,0 c -5.371,0 -9.695,-4.168 -9.695,-9.348 l 0,-109.793 c 0,-5.179 4.324,-9.347 9.695,-9.347 z"
           style="fill:#e2f2fe;fill-opacity:1;fill-rule:nonzero;stroke:#e5f5ff;stroke-opacity:1;stroke-width:0.493412;stroke-linecap:butt;stroke-linejoin:miter;stroke-miterlimit:4;stroke-dasharray:1.480237,0.493412;stroke-dashoffset:0"
           id="path3007" /></g><g
         id="g3009"
         transform="matrix(1,0,0,-1,0,416.47501)"><path
           d="m 215.73,153.332 72,0 0,40 -72,0 0,-40 z"
           style="fill:#ffffff;fill-opacity:1;fill-rule:nonzero;stroke:#000000;stroke-opacity:1;stroke-width:0.48;stroke-linecap:butt;stroke-linejoin:miter;stroke-miterlimit:4;stroke-dasharray:none"
           id="path3011" /></g><g
         id="g3013"
         transform="matrix(1,0,0,-1,0,416.47501)"><path
           d="m 212.172,156.711 72,0 0,40 -72,0 0,-40 z"
           style="fill:#ffffff;fill-opacity:1;fill-rule:nonzero;stroke:#000000;stroke-opacity:1;stroke-width:0.48;stroke-linecap:butt;stroke-linejoin:miter;stroke-miterlimit:4;stroke-dasharray:none"
           id="path3015" /></g><g
         id="g3017"
         transform="matrix(1,0,0,-1,0,416.47501)"><path
           d="m 100.324,92.238 72,0 0,40 -72,0 0,-40 z"
           style="fill:#ffffff;fill-opacity:1;fill-rule:nonzero;stroke:#000000;stroke-opacity:1;stroke-width:0.48;stroke-linecap:butt;stroke-linejoin:miter;stroke-miterlimit:4;stroke-dasharray:none"
           id="path3019" /></g><g
         id="g3021"
         transform="matrix(1,0,0,-1,0,416.47501)"><path
           d="m 131.398,4.238 c -7.976,0.36 -14.574,5.356 -16.5,12 -0.191,-0.004 -0.378,0 -0.574,0 -20.312,10.039 -10.695,30.649 -2,31.875 0,0.043 0,0.086 0,0.125 0,8.84 8.059,16 18,16 6.801,0 12.715,-3.355 15.778,-8.297 3.21,2.649 7.496,4.297 12.222,4.297 9.942,0 18,-7.16 18,-16 0,-3.3 -1.121,-6.375 -3.051,-8.922 3.122,-2.878 5.051,-6.765 5.051,-11.078 0,-8.836 -8.058,-16 -18,-16 -4.726,0 -9.012,1.629 -12.222,4.278 -3.067,-4.938 -8.985,-8.278 -15.778,-8.278 -0.308,0 -0.617,-0.011 -0.926,0 z"
           style="fill:#ffffff;fill-opacity:1;fill-rule:nonzero;stroke:#000000;stroke-opacity:1;stroke-width:0.48;stroke-linecap:butt;stroke-linejoin:miter;stroke-miterlimit:4;stroke-dasharray:none"
           id="path3023" /></g><g
         id="g3025"
         transform="matrix(1,0,0,-1,0,416.47501)"><path
           d="m 211.617,13.426 0,40 c 0,6.629 16.121,12 36,12 19.883,0 36,-5.371 36,-12 l 0,-40 -72,0 z"
           style="fill:none;stroke:#000000;stroke-opacity:1;stroke-width:0.48;stroke-linecap:butt;stroke-linejoin:miter;stroke-miterlimit:4;stroke-dasharray:none"
           id="path3027" /></g><g
         id="g3029"
         transform="matrix(1,0,0,-1,0,416.47501)"><path
           d="m 283.617,13.418 c 0,6.625 -16.117,12 -36,12 -19.879,0 -36,-5.375 -36,-12 0,-6.629 16.121,-12 36,-12 19.883,0 36,5.371 36,12 z"
           style="fill:#ffffff;fill-opacity:1;fill-rule:nonzero;stroke:#000000;stroke-opacity:1;stroke-width:0.48;stroke-linecap:butt;stroke-linejoin:miter;stroke-miterlimit:4;stroke-dasharray:none"
           id="path3031" /></g><text
         transform="matrix(1,0,0,-1,235.61912,371.04853)"
         id="text3033"><tspan
           style="fill:#000000;fill-opacity:1;fill-rule:nonzero;stroke:none;font-family:DejaVu Sans;font-variant:normal;font-weight:normal;font-size:8.8;writing-mode:lr;-inkscape-font-specification:DejaVuSans"
           x="0 6.0192 11.572 19.1576"
           y="0"
           sodipodi:role="line"
           id="tspan3035">AEMO</tspan></text>
<g
         id="g3037"
         transform="matrix(1,0,0,-1,0,416.47501)"><path
           d="m 136.324,64.238 0,28"
           style="fill:none;stroke:#000000;stroke-opacity:1;stroke-width:0.48;stroke-linecap:butt;stroke-linejoin:miter;stroke-miterlimit:4;stroke-dasharray:none"
           id="path3039" /></g><g
         id="g3041"
         transform="matrix(0,-1,-1,0,0,416.47501)"><path
           d="m 69.039,-136.324 1.922,-1.922 -6.723,1.922 6.723,1.918 -1.922,-1.918 z"
           style="fill:#000000;fill-opacity:1;fill-rule:evenodd;stroke:#000000;stroke-opacity:1;stroke-width:0.48;stroke-linecap:butt;stroke-linejoin:miter;stroke-miterlimit:4;stroke-dasharray:none"
           id="path3043" /></g><g
         id="g3045"
         transform="matrix(0,1,1,0,0,416.47501)"><path
           d="m -87.441,136.324 1.921,-1.918 -6.718,1.918 6.718,1.922 -1.921,-1.922 z"
           style="fill:#000000;fill-opacity:1;fill-rule:evenodd;stroke:#000000;stroke-opacity:1;stroke-width:0.48;stroke-linecap:butt;stroke-linejoin:miter;stroke-miterlimit:4;stroke-dasharray:none"
           id="path3047" /></g><text
         transform="matrix(1,0,0,-1,108.325,309.03526)"
         id="text3049"><tspan
           style="fill:#000000;fill-opacity:1;fill-rule:nonzero;stroke:none;font-family:DejaVu Sans;font-variant:normal;font-weight:normal;font-size:8.8;writing-mode:lr;-inkscape-font-specification:DejaVuSans"
           x="0 6.776 12.1616 15.6112 21.0056 26.5848 31.9528 37.532 40.9728 45.8128"
           y="0"
           sodipodi:role="line"
           id="tspan3051">DataSource</tspan></text>
<text
         transform="matrix(1,0,0,-1,108.325,299.43526)"
         id="text3053"><tspan
           style="fill:#000000;fill-opacity:1;fill-rule:nonzero;stroke:none;font-family:DejaVu Sans;font-variant:normal;font-weight:normal;font-size:4.8;writing-mode:lr;-inkscape-font-specification:DejaVuSans"
           x="0 3.696 6.6288 10.5504 13.5888 14.9184 17.8512 20.7888 23.832 26.784"
           y="0"
           sodipodi:role="line"
           id="tspan3055">Downloader</tspan><tspan
           style="fill:#000000;fill-opacity:1;fill-rule:nonzero;stroke:none;font-family:DejaVu Sans;font-variant:normal;font-weight:normal;font-size:4.8;writing-mode:lr;-inkscape-font-specification:DejaVuSans"
           x="0 2.6832 5.6208 7.5984 10.0992 13.0512"
           y="8.0000016"
           sodipodi:role="line"
           id="tspan3057">Parser</tspan></text>
<g
         id="g3059"
         transform="matrix(1,0,0,-1,0,416.47501)"><path
           d="m 100.324,160.238 72,0 0,40 -72,0 0,-40 z"
           style="fill:#ffffff;fill-opacity:1;fill-rule:nonzero;stroke:#000000;stroke-opacity:1;stroke-width:0.48;stroke-linecap:butt;stroke-linejoin:miter;stroke-miterlimit:4;stroke-dasharray:none"
           id="path3061" /></g><g
         id="g3063"
         transform="matrix(1,0,0,-1,0,416.47501)"><path
           d="m 136.324,132.238 0,28"
           style="fill:none;stroke:#000000;stroke-opacity:1;stroke-width:0.48;stroke-linecap:butt;stroke-linejoin:miter;stroke-miterlimit:4;stroke-dasharray:none"
           id="path3065" /></g><g
         id="g3071"
         transform="matrix(0,1,1,0,0,416.47501)"><path
           d="m -155.441,136.324 1.921,-1.918 -6.718,1.918 6.718,1.922 -1.921,-1.922 z"
           style="fill:#000000;fill-opacity:1;fill-rule:evenodd;stroke:#000000;stroke-opacity:1;stroke-width:0.48;stroke-linecap:butt;stroke-linejoin:miter;stroke-miterlimit:4;stroke-dasharray:none"
           id="path3073" /></g><text
         transform="matrix(1,0,0,-1,108.325,240.23526)"
         id="text3075"><tspan
           style="fill:#000000;fill-opacity:1;fill-rule:nonzero;stroke:none;font-family:DejaVu Sans;font-variant:normal;font-weight:normal;font-size:8.8;writing-mode:lr;-inkscape-font-specification:DejaVuSans"
           x="0 8.5008 10.9384 16.5176 22.0968 30.668 33.1056 35.5344 37.972"
           y="0"
           sodipodi:role="line"
           id="tspan3077">Windmills</tspan><tspan
           style="fill:#000000;fill-opacity:1;fill-rule:nonzero;stroke:none;font-family:DejaVu Sans;font-variant:normal;font-weight:normal;font-size:8.8;writing-mode:lr;-inkscape-font-specification:DejaVuSans"
           x="0 8.5008 10.9384 16.5176 22.0968 27.676 33.0616 36.6872 41.7912"
           y="16.000002"
           sodipodi:role="line"
           id="tspan3079">Windparks</tspan></text>
<g
         id="g3081"
         transform="matrix(1,0,0,-1,0,416.47501)"><path
           d="m 172.324,180.238 36,0"
           style="fill:none;stroke:#000000;stroke-opacity:1;stroke-width:0.48;stroke-linecap:butt;stroke-linejoin:miter;stroke-miterlimit:4;stroke-dasharray:none"
           id="path3083" /></g><g
         id="g3085"
         transform="matrix(1,0,0,-1,0,416.47501)"><path
           d="m 177.125,180.238 1.922,-1.918 -6.723,1.918 6.723,1.922 -1.922,-1.922 z"
           style="fill:#000000;fill-opacity:1;fill-rule:evenodd;stroke:#000000;stroke-opacity:1;stroke-width:0.48;stroke-linecap:butt;stroke-linejoin:miter;stroke-miterlimit:4;stroke-dasharray:none"
           id="path3087" /></g><g
         id="g3089"
         transform="matrix(-1,0,0,1,0,416.47501)"><path
           d="m -203.523,-180.238 1.918,-1.922 -6.719,1.922 6.719,1.918 -1.918,-1.918 z"
           style="fill:#000000;fill-opacity:1;fill-rule:evenodd;stroke:#000000;stroke-opacity:1;stroke-width:0.48;stroke-linecap:butt;stroke-linejoin:miter;stroke-miterlimit:4;stroke-dasharray:none"
           id="path3091" /></g><g
         id="g3093"
         transform="matrix(1,0,0,-1,0,416.47501)"><path
           d="m 208.324,160.238 72,0 0,40 -72,0 0,-40 z"
           style="fill:#ffffff;fill-opacity:1;fill-rule:nonzero;stroke:#000000;stroke-opacity:1;stroke-width:0.48;stroke-linecap:butt;stroke-linejoin:miter;stroke-miterlimit:4;stroke-dasharray:none"
           id="path3095" /></g><text
         transform="matrix(1,0,0,-1,216.325,232.23526)"
         id="text3097"><tspan
           style="fill:#000000;fill-opacity:1;fill-rule:nonzero;stroke:none;font-family:DejaVu Sans;font-variant:normal;font-weight:normal;font-size:8.8;writing-mode:lr;-inkscape-font-specification:DejaVuSans"
           x="0 5.8256 8.2632 12.8392 18.4184 23.804 26.2416 28.6792 33.2904 38.676 42.1344 44.5632 49.94"
           y="0"
           sodipodi:role="line"
           id="tspan3099">Visualization</tspan></text>
<g
         id="g3101"
         transform="matrix(1,0,0,-1,0,416.47501)"><path
           d="m 44.324,284.238 72,0 0,40 -72,0 0,-40 z"
           style="fill:#ffffff;fill-opacity:1;fill-rule:nonzero;stroke:#000000;stroke-opacity:1;stroke-width:0.48;stroke-linecap:butt;stroke-linejoin:miter;stroke-miterlimit:4;stroke-dasharray:none"
           id="path3103" /></g><text
         transform="matrix(1,0,0,-1,54.725,108.23526)"
         id="text3105"><tspan
           style="fill:#000000;fill-opacity:1;fill-rule:nonzero;stroke:none;font-family:DejaVu Sans;font-variant:normal;font-weight:normal;font-size:8.8;writing-mode:lr;-inkscape-font-specification:DejaVuSans"
           x="0 5.72 11.132 16.7112 20.1432 25.5552 30.14 34.716 37.1536 42.5216"
           y="0"
           sodipodi:role="line"
           id="tspan3107">Regression</tspan></text>
<g
         id="g3109"
         transform="matrix(1,0,0,-1,0,416.47501)"><path
           d="m 156.324,284.238 72,0 0,40 -72,0 0,-40 z"
           style="fill:#ffffff;fill-opacity:1;fill-rule:nonzero;stroke:#000000;stroke-opacity:1;stroke-width:0.48;stroke-linecap:butt;stroke-linejoin:miter;stroke-miterlimit:4;stroke-dasharray:none"
           id="path3111" /></g><text
         transform="matrix(1,0,0,-1,164.325,108.23526)"
         id="text3113"><tspan
           style="fill:#000000;fill-opacity:1;fill-rule:nonzero;stroke:none;font-family:DejaVu Sans;font-variant:normal;font-weight:normal;font-size:8.8;writing-mode:lr;-inkscape-font-specification:DejaVuSans"
           x="0 6.1512 8.58 13.9744 18.5504 23.1352 25.564 31.108 35.948 41.3424 44.792 47.2296 52.5976"
           y="0"
           sodipodi:role="line"
           id="tspan3115">Classiﬁcation</tspan></text>
<g
         id="g3117"
         transform="matrix(1,0,0,-1,0,416.47501)"><path
           d="m 136.324,220.238 -0.265,-20"
           style="fill:none;stroke:#000000;stroke-opacity:1;stroke-width:0.48;stroke-linecap:butt;stroke-linejoin:miter;stroke-miterlimit:4;stroke-dasharray:none"
           id="path3119" /></g><g
         id="g3121"
         transform="matrix(-0.0133332,1,1,0.0133332,0,416.47501)"><path
           d="m -217.22,133.365 1.921,-1.919 -6.717,1.918 6.716,1.922 -1.92,-1.921 z"
           style="fill:#000000;fill-opacity:1;fill-rule:evenodd;stroke:#000000;stroke-opacity:1;stroke-width:0.479957;stroke-linecap:butt;stroke-linejoin:miter;stroke-miterlimit:4;stroke-dasharray:none"
           id="path3123" /></g><g
         id="g3129"
         transform="matrix(1,0,0,-1,0,416.47501)"><path
           d="m 100.324,348.238 72,0 0,40 -72,0 0,-40 z"
           style="fill:none;stroke:#000000;stroke-opacity:1;stroke-width:0.48;stroke-linecap:butt;stroke-linejoin:miter;stroke-miterlimit:4;stroke-dasharray:none"
           id="path3131" /></g><text
         transform="matrix(1,0,0,-1,117.925,44.23526)"
         id="text3133"><tspan
           style="fill:#000000;fill-opacity:1;fill-rule:nonzero;stroke:none;font-family:DejaVu Sans;font-variant:normal;font-weight:normal;font-size:8.8;writing-mode:lr;-inkscape-font-specification:DejaVuSans"
           x="0 6.0192 11.5896 16.9752 19.4128 24.6136 29.1896 31.6272"
           y="0"
           sodipodi:role="line"
           id="tspan3135">Analysis</tspan></text>
<g
         id="g3137"
         transform="matrix(1,0,0,-1,0,416.47501)"><path
           d="m 11.523,12.25 0,40 c 0,6.629 16.122,12 36,12 19.883,0 36,-5.371 36,-12 l 0,-40 -72,0 z"
           style="fill:none;stroke:#000000;stroke-opacity:1;stroke-width:0.48;stroke-linecap:butt;stroke-linejoin:miter;stroke-miterlimit:4;stroke-dasharray:none"
           id="path3139" /></g><g
         id="g3141"
         transform="matrix(1,0,0,-1,0,416.47501)"><path
           d="m 83.523,12.238 c 0,6.629 -16.117,12 -36,12 -19.878,0 -36,-5.371 -36,-12 0,-6.625 16.122,-12 36,-12 19.883,0 36,5.375 36,12 z"
           style="fill:#ffffff;fill-opacity:1;fill-rule:nonzero;stroke:#000000;stroke-opacity:1;stroke-width:0.48;stroke-linecap:butt;stroke-linejoin:miter;stroke-miterlimit:4;stroke-dasharray:none"
           id="path3143" /></g><text
         transform="matrix(1,0,0,-1,36.325,372.22501)"
         id="text3145"><tspan
           style="fill:#000000;fill-opacity:1;fill-rule:nonzero;stroke:none;font-family:DejaVu Sans;font-variant:normal;font-weight:normal;font-size:8.8;writing-mode:lr;-inkscape-font-specification:DejaVuSans"
           x="0 6.5824 12.6896 18.2512"
           y="0"
           sodipodi:role="line"
           id="tspan3147">NREL</tspan></text>
<g
         id="g3149"
         transform="matrix(1,0,0,-1,0,416.47501)"><path
           d="m 84.324,36.238 20,0"
           style="fill:none;stroke:#000000;stroke-opacity:1;stroke-width:0.48;stroke-linecap:butt;stroke-linejoin:miter;stroke-miterlimit:4;stroke-dasharray:none"
           id="path3151" /></g><g
         id="g3153"
         transform="matrix(1,0,0,-1,0,416.47501)"><path
           d="m 89.125,36.238 1.922,-1.918 -6.723,1.918 6.723,1.922 -1.922,-1.922 z"
           style="fill:#000000;fill-opacity:1;fill-rule:evenodd;stroke:#000000;stroke-opacity:1;stroke-width:0.48;stroke-linecap:butt;stroke-linejoin:miter;stroke-miterlimit:4;stroke-dasharray:none"
           id="path3155" /></g><g
         id="g3157"
         transform="matrix(-1,0,0,1,0,416.47501)"><path
           d="m -99.523,-36.238 1.918,-1.922 -6.719,1.922 6.719,1.918 -1.918,-1.918 z"
           style="fill:#000000;fill-opacity:1;fill-rule:evenodd;stroke:#000000;stroke-opacity:1;stroke-width:0.48;stroke-linecap:butt;stroke-linejoin:miter;stroke-miterlimit:4;stroke-dasharray:none"
           id="path3159" /></g><g
         id="g3161"
         transform="matrix(1,0,0,-1,0,416.47501)"><path
           d="m 172.324,36.238 40,0"
           style="fill:none;stroke:#000000;stroke-opacity:1;stroke-width:0.48;stroke-linecap:butt;stroke-linejoin:miter;stroke-miterlimit:4;stroke-dasharray:none"
           id="path3163" /></g><g
         id="g3165"
         transform="matrix(1,0,0,-1,0,416.47501)"><path
           d="m 177.125,36.238 1.922,-1.918 -6.723,1.918 6.723,1.922 -1.922,-1.922 z"
           style="fill:#000000;fill-opacity:1;fill-rule:evenodd;stroke:#000000;stroke-opacity:1;stroke-width:0.48;stroke-linecap:butt;stroke-linejoin:miter;stroke-miterlimit:4;stroke-dasharray:none"
           id="path3167" /></g><g
         id="g3169"
         transform="matrix(-1,0,0,1,0,416.47501)"><path
           d="m -207.523,-36.238 1.918,-1.922 -6.719,1.922 6.719,1.918 -1.918,-1.918 z"
           style="fill:#000000;fill-opacity:1;fill-rule:evenodd;stroke:#000000;stroke-opacity:1;stroke-width:0.48;stroke-linecap:butt;stroke-linejoin:miter;stroke-miterlimit:4;stroke-dasharray:none"
           id="path3171" /></g><g
         id="g3173"
         transform="matrix(1,0,0,-1,0,416.47501)"><path
           d="m 76.324,324.238 24,44"
           style="fill:none;stroke:#000000;stroke-opacity:1;stroke-width:0.48;stroke-linecap:butt;stroke-linejoin:miter;stroke-miterlimit:4;stroke-dasharray:none"
           id="path3175" /></g><g
         id="g3181"
         transform="matrix(-0.545455,1,1,0.545455,0,416.47501)"><path
           d="m -321.765,-77.481 1.688,-1.684 -5.899,1.684 5.897,1.685 -1.686,-1.685 z"
           style="fill:#000000;fill-opacity:1;fill-rule:evenodd;stroke:#000000;stroke-opacity:1;stroke-width:0.42139;stroke-linecap:butt;stroke-linejoin:miter;stroke-miterlimit:4;stroke-dasharray:none"
           id="path3183" /></g><g
         id="g3185"
         transform="matrix(1,0,0,-1,0,416.47501)"><path
           d="m 196.324,324.238 -24,44"
           style="fill:none;stroke:#000000;stroke-opacity:1;stroke-width:0.48;stroke-linecap:butt;stroke-linejoin:miter;stroke-miterlimit:4;stroke-dasharray:none"
           id="path3187" /></g><g
         id="g3193"
         transform="matrix(0.545455,1,1,-0.545455,0,416.47501)"><path
           d="m -207.147,287.614 1.685,-1.688 -5.897,1.685 5.899,1.685 -1.687,-1.682 z"
           style="fill:#000000;fill-opacity:1;fill-rule:evenodd;stroke:#000000;stroke-opacity:1;stroke-width:0.42139;stroke-linecap:butt;stroke-linejoin:miter;stroke-miterlimit:4;stroke-dasharray:none"
           id="path3195" /></g><g
         id="g3197"
         transform="matrix(1,0,0,-1,0,416.47501)"><path
           d="m 136.324,388.238 0,28 108,0 0,-216"
           style="fill:none;stroke:#000000;stroke-opacity:1;stroke-width:0.48;stroke-linecap:butt;stroke-linejoin:miter;stroke-miterlimit:4;stroke-dasharray:none"
           id="path3199" /></g><g
         id="g3205"
         transform="matrix(0,-1,-1,0,0,416.47501)"><path
           d="m 205.039,-244.324 1.922,-1.922 -6.723,1.922 6.723,1.918 -1.922,-1.918 z"
           style="fill:#000000;fill-opacity:1;fill-rule:evenodd;stroke:#000000;stroke-opacity:1;stroke-width:0.48;stroke-linecap:butt;stroke-linejoin:miter;stroke-miterlimit:4;stroke-dasharray:none"
           id="path3207" /></g><g
         id="g3209"
         transform="matrix(1,0,0,-1,0,416.47501)"><path
           d="m 100.324,220.238 72,0 0,40 -72,0 0,-40 z"
           style="fill:none;stroke:#000000;stroke-opacity:1;stroke-width:0.48;stroke-linecap:butt;stroke-linejoin:miter;stroke-miterlimit:4;stroke-dasharray:none"
           id="path3211" /></g><text
         transform="matrix(1,0,0,-1,117.925,172.23526)"
         id="text3213"><tspan
           style="fill:#000000;fill-opacity:1;fill-rule:nonzero;stroke:none;font-family:DejaVu Sans;font-variant:normal;font-weight:normal;font-size:8.8;writing-mode:lr;-inkscape-font-specification:DejaVuSans"
           x="0 7.5856 12.98 18.5592 24.1384 26.5672 32.1464"
           y="0"
           sodipodi:role="line"
           id="tspan3215">Mapping</tspan></text>
<g
         id="g3217"
         transform="matrix(1,0,0,-1,0,416.47501)"><path
           d="m 100.324,240.238 -24,44"
           style="fill:none;stroke:#000000;stroke-opacity:1;stroke-width:0.48;stroke-linecap:butt;stroke-linejoin:miter;stroke-miterlimit:4;stroke-dasharray:none"
           id="path3219" /></g><g
         id="g3225"
         transform="matrix(0.545455,1,1,-0.545455,0,416.47501)"><path
           d="m -182.765,178.315 1.685,-1.689 -5.897,1.686 5.899,1.684 -1.687,-1.681 z"
           style="fill:#000000;fill-opacity:1;fill-rule:evenodd;stroke:#000000;stroke-opacity:1;stroke-width:0.42139;stroke-linecap:butt;stroke-linejoin:miter;stroke-miterlimit:4;stroke-dasharray:none"
           id="path3227" /></g><g
         id="g3229"
         transform="matrix(1,0,0,-1,0,416.47501)"><path
           d="m 172.324,240.238 24,44"
           style="fill:none;stroke:#000000;stroke-opacity:1;stroke-width:0.48;stroke-linecap:butt;stroke-linejoin:miter;stroke-miterlimit:4;stroke-dasharray:none"
           id="path3231" /></g><g
         id="g3237"
         transform="matrix(-0.545455,1,1,0.545455,0,416.47501)"><path
           d="m -297.383,31.818 1.688,-1.684 -5.899,1.684 5.897,1.686 -1.686,-1.686 z"
           style="fill:#000000;fill-opacity:1;fill-rule:evenodd;stroke:#000000;stroke-opacity:1;stroke-width:0.42139;stroke-linecap:butt;stroke-linejoin:miter;stroke-miterlimit:4;stroke-dasharray:none"
           id="path3239" /></g><text
         transform="matrix(0,1,1,0,23.69248,98.658356)"
         id="text3241"><tspan
           style="fill:#000000;fill-opacity:1;fill-rule:nonzero;stroke:none;font-family:DejaVu Sans;font-variant:normal;font-weight:normal;font-size:16;writing-mode:lr;-inkscape-font-specification:DejaVuSans"
           x="0 13.792"
           y="0"
           sodipodi:role="line"
           id="tspan3243">ML</tspan><tspan
           style="fill:#000000;fill-opacity:1;fill-rule:nonzero;stroke:none;font-family:DejaVu Sans;font-variant:normal;font-weight:normal;font-size:16;writing-mode:lr;-inkscape-font-specification:DejaVuSans"
           x="149.500592 163.292592 173.068592 183.212592 193.052592"
           y="2.36872"
           sodipodi:role="line"
           id="tspan3245">Model</tspan></text>
<flowRoot
         xml:space="preserve"
         id="flowRoot3292"
         style="fill:black;stroke:none;stroke-opacity:1;stroke-width:1px;stroke-linejoin:miter;stroke-linecap:butt;fill-opacity:1;font-family:Sans;font-style:normal;font-weight:normal;font-size:20px;line-height:125%;letter-spacing:0px;word-spacing:0px"><flowRegion
           id="flowRegion3294"><rect
             id="rect3296"
             width="96.209503"
             height="59.614475"
             x="380.7063"
             y="92.077805" /></flowRegion><flowPara
           id="flowPara3298"></flowPara></flowRoot><text
         xml:space="preserve"
         style="font-size:13.93539429px;font-style:normal;font-weight:normal;line-height:125%;letter-spacing:0px;word-spacing:0px;fill:#000000;fill-opacity:1;stroke:none;font-family:Sans"
         x="209.17917"
         y="-308.57629"
         id="text3323"
         sodipodi:linespacing="125%"
         transform="scale(1,-1)"><tspan
           sodipodi:role="line"
           id="tspan3325"
           x="209.17917"
           y="-308.57629"
           style="font-size:6.27092743px">Dimensionality Reduction</tspan><tspan
           sodipodi:role="line"
           x="209.17917"
           y="-300.73764"
           id="tspan3327"
           style="font-size:6.27092743px">Park / Mill Information</tspan><tspan
           sodipodi:role="line"
           x="209.17917"
           y="-292.89899"
           id="tspan3329"
           style="font-size:6.27092743px">Time-Series</tspan><tspan
           sodipodi:role="line"
           x="209.17917"
           y="-285.0603"
           id="tspan3331"
           style="font-size:6.27092743px">Topology</tspan><tspan
           sodipodi:role="line"
           x="209.17917"
           y="-277.22165"
           id="tspan3333"
           style="font-size:6.27092743px">...</tspan></text>
<text
         xml:space="preserve"
         style="font-size:16px;font-style:normal;font-weight:normal;line-height:125%;letter-spacing:0px;word-spacing:0px;fill:#000000;fill-opacity:1;stroke:none;font-family:Sans"
         x="123.2426"
         y="-378.69949"
         id="text3335"
         sodipodi:linespacing="125%"
         transform="scale(1,-1)"><tspan
           sodipodi:role="line"
           id="tspan3337"
           x="123.2426"
           y="-378.69949"
           style="font-size:8.80000019px;font-style:normal;font-variant:normal;font-weight:normal;font-stretch:normal;font-family:DejaVu Sans;-inkscape-font-specification:DejaVu Sans">Internet</tspan></text>
</g></g></svg>